<svg xmlns="http://www.w3.org/2000/svg" width="32" height="32" viewBox="0 0 32 32" fill="none" stroke="#e74c3c" stroke-width="1.5" stroke-linecap="round" stroke-linejoin="round">
  <rect x="8" y="8" width="16" height="16" rx="2"/>
  <rect x="11" y="11" width="10" height="10" rx="1"/>
  <line x1="12" y1="8" x2="12" y2="5"/>
  <line x1="16" y1="8" x2="16" y2="5"/>
  <line x1="20" y1="8" x2="20" y2="5"/>
  <line x1="12" y1="24" x2="12" y2="27"/>
  <line x1="16" y1="24" x2="16" y2="27"/>
  <line x1="20" y1="24" x2="20" y2="27"/>
  <line x1="8" y1="12" x2="5" y2="12"/>
  <line x1="8" y1="16" x2="5" y2="16"/>
  <line x1="8" y1="20" x2="5" y2="20"/>
  <line x1="24" y1="12" x2="27" y2="12"/>
  <line x1="24" y1="16" x2="27" y2="16"/>
  <line x1="24" y1="20" x2="27" y2="20"/>
</svg>